<svg width="20" height="20" viewBox="0 0 20 20" fill="none" xmlns="http://www.w3.org/2000/svg">
<path d="M10 0C4.48606 0 0 4.48606 0 10C0 15.5139 4.48606 20 10 20C15.5139 20 20 15.5139 20 10C20 4.48606 15.5139 0 10 0ZM16.875 14.6154H14.701C14.6336 14.6152 14.5675 14.5974 14.5091 14.5636C14.4508 14.5299 14.4024 14.4814 14.3687 14.4231L13.5928 13.0923C13.5417 13.0053 13.5269 12.9017 13.5514 12.8038L14.2659 9.92308C14.2802 9.86503 14.3079 9.81113 14.3467 9.76564C14.3855 9.72016 14.4344 9.68435 14.4894 9.66106L15.8404 9.08894C15.9064 9.06095 15.9789 9.05197 16.0498 9.06301C16.1206 9.07405 16.187 9.10468 16.2413 9.15144L18.2428 10.8736C18.2921 10.916 18.3299 10.9703 18.3525 11.0314C18.3751 11.0924 18.3819 11.1582 18.3721 11.2226C18.2064 12.3598 17.8091 13.4509 17.2048 14.4284C17.1707 14.4854 17.1223 14.5326 17.0646 14.5653C17.0068 14.5981 16.9414 14.6154 16.875 14.6154ZM4.15962 9.09279L5.51058 9.6649C5.56564 9.6882 5.61452 9.72401 5.65333 9.76949C5.69213 9.81497 5.7198 9.86888 5.73414 9.92692L6.44856 12.8077C6.47315 12.9055 6.4583 13.0091 6.40721 13.0962L5.63125 14.4231C5.59757 14.4814 5.54915 14.5299 5.49085 14.5636C5.43255 14.5974 5.3664 14.6152 5.29904 14.6154H3.125C3.05925 14.6154 2.99458 14.5986 2.93718 14.5665C2.87978 14.5345 2.83155 14.4882 2.79712 14.4322C2.19286 13.4547 1.79556 12.3636 1.62981 11.2264C1.62006 11.1621 1.62682 11.0963 1.64943 11.0352C1.67205 10.9742 1.7098 10.9199 1.75913 10.8774L3.76058 9.15529C3.81475 9.10889 3.88076 9.07848 3.95123 9.06744C4.0217 9.05641 4.09385 9.06518 4.15962 9.09279ZM16.5125 4.89856L15.6438 7.36875C15.6263 7.41923 15.5985 7.46553 15.5622 7.50468C15.5258 7.54383 15.4817 7.57498 15.4327 7.59615L14.0106 8.19856C13.9453 8.22617 13.8737 8.23521 13.8036 8.22469C13.7335 8.21417 13.6677 8.1845 13.6135 8.13894L10.9087 5.87019C10.8654 5.83443 10.8306 5.78965 10.8065 5.73899C10.7824 5.68833 10.7697 5.63302 10.7692 5.57692V3.9625C10.7693 3.89924 10.7849 3.83697 10.8148 3.78121C10.8446 3.72544 10.8878 3.6779 10.9404 3.64279L12.9995 2.27067C13.0533 2.2348 13.1152 2.21305 13.1795 2.20742C13.2439 2.20179 13.3086 2.21247 13.3678 2.23846C14.5526 2.75522 15.6041 3.53523 16.4423 4.51923C16.4864 4.57068 16.5161 4.63285 16.5284 4.69946C16.5407 4.76607 16.5352 4.83475 16.5125 4.89856ZM7 2.27067L9.05962 3.64279C9.11224 3.6779 9.15538 3.72544 9.18524 3.78121C9.21509 3.83697 9.23073 3.89924 9.23077 3.9625V5.57692C9.23077 5.63311 9.21846 5.68861 9.1947 5.73953C9.17095 5.79044 9.13632 5.83554 9.09327 5.87163L6.38846 8.14038C6.33418 8.18594 6.26838 8.21561 6.1983 8.22613C6.12823 8.23665 6.05661 8.22761 5.99135 8.2L4.56731 7.59615C4.51796 7.57526 4.47352 7.54427 4.43684 7.5052C4.40016 7.46612 4.37206 7.41981 4.35433 7.36923L3.48558 4.89904C3.463 4.835 3.45778 4.76613 3.47045 4.69942C3.48311 4.63271 3.51322 4.57054 3.55769 4.51923C4.39639 3.53424 5.44873 2.75354 6.63462 2.23654C6.69354 2.21134 6.75783 2.20126 6.82164 2.20722C6.88545 2.21318 6.94676 2.23499 7 2.27067ZM7.83221 18.0139L6.88365 15.625C6.86196 15.5707 6.85294 15.5122 6.85727 15.4538C6.8616 15.3955 6.87918 15.339 6.90865 15.2885L7.63798 14.0385C7.67166 13.9801 7.72008 13.9317 7.77838 13.8979C7.83668 13.8642 7.90283 13.8463 7.97019 13.8462H12.0298C12.0972 13.8463 12.1633 13.8642 12.2216 13.8979C12.2799 13.9317 12.3283 13.9801 12.362 14.0385L13.0918 15.2885C13.1214 15.3389 13.139 15.3955 13.1435 15.4538C13.1479 15.5121 13.1389 15.5707 13.1173 15.625L12.1755 18.013C12.1524 18.0714 12.1155 18.1232 12.0678 18.164C12.0201 18.2048 11.9632 18.2334 11.9019 18.2471C10.6521 18.534 9.35363 18.534 8.10385 18.2471C8.04306 18.2332 7.98657 18.2047 7.93925 18.1641C7.89193 18.1234 7.85519 18.0719 7.83221 18.0139Z" fill="#F4F2E0"/>
</svg>
