<svg width="16" height="15" viewBox="0 0 16 15" fill="none" xmlns="http://www.w3.org/2000/svg">
<path d="M12.8 1.62789V0H3.2V1.62789H0V3.94737C0 5.94079 1.5112 7.57737 3.4592 7.84105C3.73822 8.64853 4.23312 9.36661 4.89158 9.91941C5.55005 10.4722 6.34762 10.8392 7.2 10.9816V11.8421C7.2 12.2609 7.03143 12.6625 6.73137 12.9586C6.43131 13.2547 6.02435 13.4211 5.6 13.4211H4.8V15H11.2V13.4211H10.4C9.97565 13.4211 9.56869 13.2547 9.26863 12.9586C8.96857 12.6625 8.8 12.2609 8.8 11.8421V10.9816C9.65238 10.8392 10.45 10.4722 11.1084 9.91941C11.7669 9.36661 12.2618 8.64853 12.5408 7.84105C14.4888 7.57737 16 5.94079 16 3.94737V1.62789H12.8ZM1.6 3.94737V3.20684H3.2V6.18C2.73239 6.01636 2.32757 5.71391 2.04109 5.31417C1.75462 4.91442 1.60054 4.43698 1.6 3.94737ZM14.4 3.94737C14.3994 4.43706 14.2453 4.91457 13.9588 5.31443C13.6724 5.71429 13.2676 6.01691 12.8 6.18079V3.20684H14.4V3.94737Z" fill="#F4F2E0"/>
</svg>
