<svg width="22" height="13" viewBox="0 0 22 13" fill="none" xmlns="http://www.w3.org/2000/svg">
<path d="M11 0C11.8509 0 12.667 0.330603 13.2686 0.919079C13.8703 1.50756 14.2083 2.3057 14.2083 3.13793C14.2083 3.97016 13.8703 4.76831 13.2686 5.35678C12.667 5.94526 11.8509 6.27586 11 6.27586C10.1491 6.27586 9.33305 5.94526 8.73137 5.35678C8.12969 4.76831 7.79167 3.97016 7.79167 3.13793C7.79167 2.3057 8.12969 1.50756 8.73137 0.919079C9.33305 0.330603 10.1491 0 11 0ZM4.58333 2.24138C5.09667 2.24138 5.57333 2.37586 5.98583 2.61793C5.84833 3.9 6.23333 5.1731 7.02167 6.16828C6.56333 7.02897 5.64667 7.62069 4.58333 7.62069C3.85399 7.62069 3.15451 7.33732 2.63879 6.83291C2.12306 6.3285 1.83333 5.64438 1.83333 4.93103C1.83333 4.21769 2.12306 3.53357 2.63879 3.02916C3.15451 2.52475 3.85399 2.24138 4.58333 2.24138ZM17.4167 2.24138C18.146 2.24138 18.8455 2.52475 19.3612 3.02916C19.8769 3.53357 20.1667 4.21769 20.1667 4.93103C20.1667 5.64438 19.8769 6.3285 19.3612 6.83291C18.8455 7.33732 18.146 7.62069 17.4167 7.62069C16.3533 7.62069 15.4367 7.02897 14.9783 6.16828C15.7776 5.15913 16.1485 3.88762 16.0142 2.61793C16.4267 2.37586 16.9033 2.24138 17.4167 2.24138ZM5.04167 11.431C5.04167 9.57517 7.70917 8.06897 11 8.06897C14.2908 8.06897 16.9583 9.57517 16.9583 11.431V13H5.04167V11.431ZM0 13V11.6552C0 10.409 1.7325 9.36 4.07917 9.05517C3.53833 9.66483 3.20833 10.5076 3.20833 11.431V13H0ZM22 13H18.7917V11.431C18.7917 10.5076 18.4617 9.66483 17.9208 9.05517C20.2675 9.36 22 10.409 22 11.6552V13Z" fill="#F4F2E0"/>
</svg>
