<svg width="14" height="14" viewBox="0 0 14 14" fill="none" xmlns="http://www.w3.org/2000/svg">
<path d="M1.75 14C1.26875 14 0.856917 13.8435 0.5145 13.5304C0.1715 13.2168 0 12.84 0 12.4V5.2C0 4.94667 0.0621248 4.70667 0.186375 4.48C0.310042 4.25333 0.48125 4.06667 0.7 3.92L5.95 0.32C6.11042 0.213333 6.27812 0.133333 6.45312 0.0799999C6.62813 0.0266666 6.81042 0 7 0C7.18958 0 7.37187 0.0266666 7.54688 0.0799999C7.72188 0.133333 7.88958 0.213333 8.05 0.32L13.3 3.92C13.5188 4.06667 13.6903 4.25333 13.8145 4.48C13.9382 4.70667 14 4.94667 14 5.2V12.4C14 12.84 13.8288 13.2168 13.4864 13.5304C13.1434 13.8435 12.7312 14 12.25 14H8.75V8.4H5.25V14H1.75Z" fill="#F4F2E0"/>
</svg>
